<svg xmlns="http://www.w3.org/2000/svg" viewBox="0 0 1024 1024">
<g transform="translate(0,1024) scale(0.1,-0.1)" fill="currentColor" stroke="none">
<path d="M2750 6735 l0 -805 400 0 400 0 2 -807 3 -808 403 -3 402 -2 0 -805 0 -805 810 0 810 0 0 805 0 805 403 2 402 3 3 808 2 807 400 0 400 0 0 805 0 805 -805 0 -805 0 0 -805 0 -805 -810 0 -810 0 0 805 0 805 -805 0 -805 0 0 -805z m2020 -1615 l0 -400 -405 0 -405 0 0 400 0 400 405 0 405 0 0 -400z m1610 0 l0 -400 -405 0 -405 0 0 400 0 400 405 0 405 0 0 -400z"/>
</g>
</svg>